<?xml version="1.0" encoding="utf-8"?>
<!-- Generator: Adobe Illustrator 27.8.1, SVG Export Plug-In . SVG Version: 6.00 Build 0)  -->
<svg version="1.1" id="Layer_1" xmlns="http://www.w3.org/2000/svg" xmlns:xlink="http://www.w3.org/1999/xlink" x="0px" y="0px"
	 viewBox="0 0 24 24" style="enable-background:new 0 0 24 24;" xml:space="preserve">
<style type="text/css">
	.st0{fill:#FFFFFF;}
</style>
<path id="Path_2815" class="st0" d="M18.2,21.3c0.6,0.6,0.6,1.6,0,2.2s-1.6,0.6-2.2,0l0,0l0,0L5.7,13.2l0,0C5,12.6,5,11.6,5.6,11
	c0,0,0.1-0.1,0.1-0.1l0,0L16.1,0.5l0,0l0,0c0.6-0.6,1.6-0.6,2.2,0c0.6,0.6,0.6,1.6,0,2.2l0,0l0,0L9,12.1L18.2,21.3L18.2,21.3
	C18.2,21.3,18.2,21.3,18.2,21.3"/>
</svg>
