<?xml version="1.0" encoding="utf-8"?>
<!-- Generator: Adobe Illustrator 27.8.1, SVG Export Plug-In . SVG Version: 6.00 Build 0)  -->
<svg version="1.1" id="Layer_1" xmlns="http://www.w3.org/2000/svg" xmlns:xlink="http://www.w3.org/1999/xlink" x="0px" y="0px"
	 viewBox="0 0 24 24" style="enable-background:new 0 0 24 24;" xml:space="preserve">
<style type="text/css">
	.st0{fill:#FFFFFF;}
</style>
<path id="Feedback-2" class="st0" d="M21.3,1.4H2.7C1.2,1.4,0,2.6,0,4.1c0,0,0,0,0,0v10.1c0,1.5,1.2,2.7,2.7,2.7c0,0,0,0,0,0h1.4
	v4.9c0,0.5,0.4,0.8,0.8,0.8c0.2,0,0.4-0.1,0.6-0.2l5.8-5.4h10c1.5,0,2.7-1.2,2.7-2.7c0,0,0,0,0,0V4.1C24,2.6,22.8,1.4,21.3,1.4z
	 M5,5h11.2c0.5,0,0.8,0.4,0.8,0.9c0,0.5-0.3,0.9-0.8,0.9H5c-0.5,0-0.8-0.4-0.8-0.9C4.2,5.5,4.5,5.1,5,5z M10.5,13.3H5
	c-0.5-0.1-0.9-0.5-0.8-1c0.1-0.4,0.4-0.7,0.8-0.8h5.5c0.5,0.1,0.9,0.5,0.8,1C11.2,12.9,10.9,13.2,10.5,13.3z M18.8,10.1H5.2
	c-0.5,0-0.9-0.3-1-0.8s0.3-0.9,0.8-1c0,0,0.1,0,0.1,0h13.6c0.5,0,0.9,0.3,1,0.8c0,0.5-0.3,0.9-0.8,1C18.9,10.1,18.9,10.1,18.8,10.1z
	"/>
</svg>
