<?xml version="1.0" encoding="utf-8"?>
<!-- Generator: Adobe Illustrator 27.8.1, SVG Export Plug-In . SVG Version: 6.00 Build 0)  -->
<svg version="1.1" id="Layer_1" xmlns="http://www.w3.org/2000/svg" xmlns:xlink="http://www.w3.org/1999/xlink" x="0px" y="0px"
	 viewBox="0 0 24 24" style="enable-background:new 0 0 24 24;" xml:space="preserve">
<style type="text/css">
	.st0{fill:#FFFFFF;}
</style>
<path id="Path_2816" class="st0" d="M5.8,21.3L5.8,21.3l9.3-9.3L5.7,2.7l0,0l0,0C5.1,2,5.1,1.1,5.7,0.5c0.6-0.6,1.6-0.6,2.2,0l0,0
	l0,0l10.4,10.4l0,0c0.7,0.5,0.8,1.5,0.2,2.2c0,0-0.1,0.1-0.1,0.1l0,0L8,23.5l0,0l0,0c-0.6,0.6-1.6,0.6-2.2,0C5.1,23,5.1,22,5.8,21.3
	C5.7,21.4,5.8,21.3,5.8,21.3"/>
</svg>
