<?xml version="1.0" encoding="utf-8"?>
<!-- Generator: Adobe Illustrator 26.0.0, SVG Export Plug-In . SVG Version: 6.00 Build 0)  -->
<svg version="1.1" id="Layer_1" xmlns="http://www.w3.org/2000/svg" xmlns:xlink="http://www.w3.org/1999/xlink" x="0px" y="0px"
	 viewBox="0 0 114.5 122.9" style="enable-background:new 0 0 114.5 122.9;" xml:space="preserve">
<path d="M24.7,31.9H3.3C2.7,43.7,3.5,55,8.1,63.2c4.4,7.8,12.3,12.9,26.2,13.3c-1.6-1.9-3.1-4.2-4.4-7c-8.3-1.1-13.2-4.6-15.9-9.8
	c-2.8-5.2-3.4-11.9-3.4-19.8c0-0.9,0.7-1.6,1.6-1.6h12.6L24.7,31.9L24.7,31.9z M56.9,33.5l3.9,9.5L71,43.7l-7.8,6.6l2.4,9.9
	l-8.7-5.4l-8.7,5.4l2.4-9.9l-7.8-6.6L53,42.9L56.9,33.5L56.9,33.5z M1.8,28.8h22.9v-5.8h-3.1c-1.9,0-3.6-0.8-4.9-2l0,0
	c-1.2-1.2-2-3-2-4.9v-3.9c-1.2-0.2-2.3-0.8-3.2-1.7c-1.1-1.1-1.8-2.6-1.8-4.3V3.4c0-0.9,0.4-1.8,1-2.4c0.6-0.6,1.5-1,2.4-1h87.6
	c0.9,0,1.8,0.4,2.4,1s1,1.5,1,2.4v2.8c0,1.7-0.7,3.2-1.8,4.3c-0.8,0.9-1.9,1.4-3.2,1.7V16c0,1.9-0.8,3.6-2,4.9l0,0
	c-1.2,1.2-3,2-4.9,2H89v5.8h23.6c0.9,0,1.6,0.7,1.6,1.6v0c0.7,12.8,0,25.2-5.2,34.3c-5.3,9.3-15,15.2-32.2,14.8
	c-1.6,1.5-3.3,2.7-4.8,3.9c-5.4,4.1-9.5,7.3-6.3,16.8h4.7c1.9,0,3.6,0.8,4.9,2s2,3,2,4.9v2.8H78c1.9,0,3.6,0.8,4.8,2l0,0
	c1.2,1.2,2,2.9,2,4.8v4.6c0,0.9-0.7,1.6-1.6,1.6H30.6c-0.9,0-1.6-0.7-1.6-1.6v-4.6c0-1.9,0.8-3.6,2-4.8l0,0c1.2-1.2,2.9-2,4.8-2h0.7
	v-2.8c0-1.9,0.8-3.6,2-4.8l0,0c1.2-1.2,3-2,4.8-2h5.3c2.8-9-0.9-11.9-6-16c-1.7-1.4-3.6-2.9-5.5-4.7c-17,0.3-26.6-5.6-31.8-14.9
	c-5.1-9.2-5.8-21.5-5.1-34.3v0C0.2,29.5,0.9,28.8,1.8,28.8L1.8,28.8z M51.9,100.3h10.5c-3.3-10.9,1.4-14.5,7.7-19.3
	c6.9-5.2,15.8-12.1,15.8-34.5V23H27.8v22.9c0.4,8.7,1.8,15.2,3.9,20.1c2,4.9,4.5,8.3,7.2,10.9c1.9,1.9,3.9,3.5,5.7,4.9
	C50.6,86.6,54.9,90,51.9,100.3L51.9,100.3z M64.6,103.4H43.3c-1,0-2,0.4-2.7,1.1l0,0c-0.7,0.7-1.1,1.6-1.1,2.7v2.8h34.6v-2.8
	c0-1-0.4-2-1.1-2.7c-0.7-0.7-1.6-1.1-2.7-1.1H64.6L64.6,103.4z M75.7,113.1H35.8c-1,0-1.9,0.4-2.6,1.1l0,0c-0.7,0.7-1.1,1.6-1.1,2.6
	v3h49.5v-3c0-1-0.4-1.9-1.1-2.6v0c-0.7-0.7-1.6-1.1-2.6-1.1H75.7L75.7,113.1z M89.1,38.4h13.8c0.9,0,1.6,0.7,1.6,1.6
	c0,7.9-0.7,14.7-3.6,19.8c-2.9,5.1-7.8,8.6-16.1,9.7c-1.4,2.8-3,5.1-4.7,7c13.9-0.4,22-5.5,26.4-13.3c4.7-8.2,5.4-19.5,4.9-31.3
	H89.1V38.4L89.1,38.4z M101.2,41.5H89.1v5c0,8.3-1.2,14.6-3,19.6c6.1-1.2,9.8-3.9,12-7.8C100.4,54,101.1,48.2,101.2,41.5L101.2,41.5
	z M24.7,41.5h-11c0.1,6.7,0.7,12.5,3,16.8c2.1,3.9,5.7,6.6,11.7,7.8c-1.9-5.1-3.3-11.6-3.7-20.1v-0.1h0L24.7,41.5L24.7,41.5z
	 M100.7,3.1H13.1c-0.1,0-0.1,0-0.2,0.1c-0.1,0-0.1,0.1-0.1,0.2v2.8c0,0.8,0.3,1.6,0.9,2.1s1.3,0.9,2.1,0.9h82.1
	c0.8,0,1.6-0.3,2.1-0.9c0.6-0.6,0.9-1.3,0.9-2.1V3.4c0-0.1,0-0.1-0.1-0.2C100.8,3.2,100.7,3.1,100.7,3.1L100.7,3.1z M96,12.3H17.8
	v3.8c0,1,0.4,2,1.1,2.7s1.6,1.1,2.7,1.1h70.6c1,0,2-0.4,2.7-1.1s1.1-1.6,1.1-2.7V12.3L96,12.3z"/>
</svg>
