<?xml version="1.0" encoding="utf-8"?>
<!-- Generator: Adobe Illustrator 27.8.1, SVG Export Plug-In . SVG Version: 6.00 Build 0)  -->
<svg version="1.1" id="Layer_1" xmlns="http://www.w3.org/2000/svg" xmlns:xlink="http://www.w3.org/1999/xlink" x="0px" y="0px"
	 viewBox="0 0 24 24" style="enable-background:new 0 0 24 24;" xml:space="preserve">
<style type="text/css">
	.st0{fill:#FFFFFF;}
</style>
<path class="st0" d="M22.5,13.1v4.2c0,1.2-1,2.2-2.2,2.2H8.5l-4.3,4.3C4.2,23.9,4.1,23.9,4,24c-0.1,0-0.2,0-0.2,0
	C3.3,24,3,23.6,3,23.2c0,0,0,0,0,0v-3.7H2.3c-1.2,0-2.2-1-2.2-2.2V5.1c0-1.2,1-2.2,2.2-2.2h8.9c-1.1,0.4-1.7,1.6-1.3,2.7
	c0.1,0.3,0.3,0.6,0.5,0.8l2,2l-0.5,2.8c-0.2,1.1,0.6,2.2,1.7,2.4c0.5,0.1,0.9,0,1.3-0.2l2.5-1.3l2.5,1.3c0.3,0.2,0.6,0.2,1,0.2
	C21.6,13.7,22.1,13.5,22.5,13.1z M23.7,5.4l-1.2,1.2l-1.4,1.3l0.6,3.5c0.1,0.4-0.2,0.8-0.6,0.9c-0.2,0-0.3,0-0.5-0.1l-3.2-1.7
	l-3.2,1.7c-0.4,0.2-0.8,0.1-1-0.3c-0.1-0.2-0.1-0.3-0.1-0.5l0.6-3.5l-2.5-2.5c-0.3-0.3-0.3-0.8,0-1.1c0.1-0.1,0.3-0.2,0.4-0.2
	l3.5-0.5l0.4-0.7l1.2-2.5c0.2-0.4,0.6-0.5,1-0.3c0.1,0.1,0.3,0.2,0.3,0.3l1.2,2.5l0.4,0.7L22.2,4l1.1,0.2C23.7,4.2,24,4.6,24,5
	C23.9,5.2,23.9,5.3,23.7,5.4z"/>
</svg>
